<svg xmlns="http://www.w3.org/2000/svg" version="1.1" xmlns:xlink="http://www.w3.org/1999/xlink" xmlns:svgjs="http://svgjs.com/svgjs" width="20mm" height="20mm"><svg id="SvgjsSvg1004" width="20mm" height="20mm" version="1.1" viewBox="0 0 20 20" sodipodi:docname="gb-ico.svg" inkscape:version="1.2.2 (b0a8486, 2022-12-01)" xmlns:inkscape="http://www.inkscape.org/namespaces/inkscape" xmlns:sodipodi="http://sodipodi.sourceforge.net/DTD/sodipodi-0.dtd" xmlns="http://www.w3.org/2000/svg" xmlns:svg="http://www.w3.org/2000/svg">
  <defs id="SvgjsDefs1003"></defs>
  <sodipodi:namedview id="SvgjsSodipodi:namedview1002" pagecolor="#ffffff" bordercolor="#000000" borderopacity="0.25" inkscape:showpageshadow="2" inkscape:pageopacity="0.0" inkscape:pagecheckerboard="0" inkscape:deskcolor="#d1d1d1" inkscape:document-units="mm" showgrid="false" inkscape:zoom="3.4356241" inkscape:cx="120.06552" inkscape:cy="69.856304" inkscape:window-width="1440" inkscape:window-height="872" inkscape:window-x="0" inkscape:window-y="0" inkscape:window-maximized="1" inkscape:current-layer="svg5"></sodipodi:namedview>
  <rect style="fill:#ffffff;fill-opacity:1;stroke-width:1" id="SvgjsRect1001" width="11.699566" height="14.077839" x="4.0660782" y="2.9920199"></rect>
  <path id="SvgjsPath1000" d="M 17.167888,0.35 2.8678885,0.3665 c 0,0 -0.175,18 0.248,18.7 0.423,0.74 7.4799995,0.538 9.8399995,0.54 l -0.0403,-0.0062 c 2.35,0.0015 4.19,-1.8 4.21,-3.15 0.012,-1.35 0.0424,-16.1 0.0424,-16.1 z M 4.4678885,3.32 h 1.53 v 6.75 h -1.53 z m 2.47,0 h 1.53 v 6.75 h -1.53 z m 4.3999995,0 h 1.53 v 6.75 h -1.53 z m 2.47,0 h 1.53 v 6.75 h -1.53 z M 9.4078885,5.68 H 10.527888 V 7.05 H 9.4078885 Z m 0,3.02 h 1.1199995 v 1.38 H 9.4078885 Z m -3.28,4.43 h 1.36 v 1.17 h 1.18 l -0.0202,1.34 -1.15,0.0202 -0.0202,1.15 -1.34,0.0196 v -1.18 h -1.17 v -1.36 l 1.16,-0.0202 v -1.14 z m 8.0899995,0.185 c 0.904,0 1.25,1.19 0.48,1.67 -0.368,0.227 -0.933,0.141 -1.18,-0.179 -0.478,-0.626 -0.074,-1.49 0.697,-1.49 l 0.0031,-0.001 z m -2.52,1.14 c 0.328,-0.0097 0.648,0.164 0.812,0.476 l 0.0057,-0.0021 c 0.252,0.497 -0.0017,1.13 -0.516,1.28 -0.773,0.231 -1.44,-0.555 -1.09,-1.27 0.202,-0.324 0.498,-0.476 0.788,-0.484 z" style="stroke-width:0.0367"></path>
</svg><style>@media (prefers-color-scheme: light) { :root { filter: none; } }
</style></svg>