<?xml version="1.0" encoding="UTF-8"?>
<!-- Created with Inkscape (http://www.inkscape.org/) -->
<svg id="svg5" width="16mm" height="20mm" version="1.1" viewBox="0 0 16 20" xmlns="http://www.w3.org/2000/svg"><path id="path8558" d="m15.2.35-14.3.0165s-.175 18 .248 18.7c.423.74 7.48.538 9.84.54l-.0403-.0062c2.35.0015 4.19-1.8 4.21-3.15.012-1.35.0424-16.1.0424-16.1zm-12.7 2.97h1.53v6.75h-1.53v-6.75zm2.47 0h1.53v6.75h-1.53v-6.75zm4.4 0h1.53v6.75h-1.53v-6.75zm2.47 0h1.53v6.75h-1.53v-6.75zm-4.4 2.36h1.12v1.37h-1.12v-1.37zm0 3.02h1.12v1.38h-1.12v-1.38zm-3.28 4.43h1.36v1.17h1.18l-.0202 1.34-1.15.0202-.0202 1.15-1.34.0196v-1.18h-1.17v-1.36l1.16-.0202v-1.14zm8.09.185c.904 0 1.25 1.19.48 1.67-.368.227-.933.141-1.18-.179-.478-.626-.074-1.49.697-1.49l.0031-.00103zm-2.52 1.14c.328-.00974.648.164.812.476l.00568-.00207c.252.497-.00173 1.13-.516 1.28-.773.231-1.44-.555-1.09-1.27.202-.324.498-.476.788-.484z" style="stroke-width:.0367"/></svg>
